<svg width="40" height="40" viewBox="0 0 40 40" fill="none" xmlns="http://www.w3.org/2000/svg">
  <defs>
    <linearGradient id="grad" x1="0%" y1="0%" x2="100%" y2="100%">
      <stop offset="0%" style="stop-color:#667eea;stop-opacity:1" />
      <stop offset="100%" style="stop-color:#764ba2;stop-opacity:1" />
    </linearGradient>
  </defs>
  <!-- Shield shape -->
  <path d="M20 2L4 10v10c0 10 7 16 16 18 9-2 16-8 16-18V10L20 2z" fill="url(#grad)"/>
  <!-- Circuit pattern -->
  <circle cx="12" cy="16" r="1.5" fill="white" opacity="0.9"/>
  <circle cx="20" cy="14" r="1.5" fill="white" opacity="0.9"/>
  <circle cx="28" cy="16" r="1.5" fill="white" opacity="0.9"/>
  <circle cx="16" cy="24" r="1.5" fill="white" opacity="0.9"/>
  <circle cx="24" cy="24" r="1.5" fill="white" opacity="0.9"/>
  <line x1="12" y1="16" x2="20" y2="14" stroke="white" stroke-width="1" opacity="0.7"/>
  <line x1="20" y1="14" x2="28" y2="16" stroke="white" stroke-width="1" opacity="0.7"/>
  <line x1="12" y1="16" x2="16" y2="24" stroke="white" stroke-width="1" opacity="0.7"/>
  <line x1="28" y1="16" x2="24" y2="24" stroke="white" stroke-width="1" opacity="0.7"/>
  <line x1="16" y1="24" x2="24" y2="24" stroke="white" stroke-width="1" opacity="0.7"/>
  <line x1="20" y1="14" x2="20" y2="24" stroke="white" stroke-width="1" opacity="0.7"/>
</svg>
